<?xml version="1.0" encoding="UTF-8"?>
<svg version="1.1" xmlns="http://www.w3.org/2000/svg" width="225" height="225">
<path d="M0 0 C74.25 0 148.5 0 225 0 C225 74.25 225 148.5 225 225 C150.75 225 76.5 225 0 225 C0 150.75 0 76.5 0 0 Z " fill="#000000" transform="translate(0,0)"/>
<path d="M0 0 C0.92518936 -0.01260864 1.85037872 -0.02521729 2.80360413 -0.03820801 C4.29578712 -0.02606262 4.29578712 -0.02606262 5.81811523 -0.01367188 C6.85177719 -0.01749878 7.88543915 -0.02132568 8.95042419 -0.02526855 C11.14013643 -0.02799042 13.32988103 -0.0206101 15.51953125 -0.00390625 C18.84051971 0.01734653 22.15930689 -0.00362031 25.48022461 -0.02929688 C27.61369287 -0.02665068 29.74715977 -0.02151968 31.88061523 -0.01367188 C33.35154381 -0.02581726 33.35154381 -0.02581726 34.85218811 -0.03820801 C45.83325916 0.10795799 54.25423 3.4601938 62.14624023 11.07617188 C68.95686227 18.74579128 70.7114316 26.24615761 70.58764648 36.32226562 C69.79923396 45.53542908 65.8710723 52.20078303 59.31420898 58.51757812 C58.57170898 59.26007813 57.82920898 60.00257812 57.06420898 60.76757812 C46.32840369 67.59945422 35.37190985 67.00274278 23.12670898 66.76757812 C21.29795257 66.74747656 19.46917474 66.72923227 17.64038086 66.71289062 C13.19778714 66.66919795 8.75623894 66.60037458 4.31420898 66.51757812 C4.32309143 67.12257141 4.33197388 67.7275647 4.34112549 68.35089111 C4.42958491 74.6448014 4.4899374 80.93853526 4.53393555 87.23291016 C4.55405713 89.58226697 4.58135749 91.93157367 4.6159668 94.28076172 C4.66445938 97.65670127 4.68717256 101.03197899 4.70483398 104.40820312 C4.72547913 105.45937317 4.74612427 106.51054321 4.76739502 107.59356689 C4.76963613 114.86836232 4.76963613 114.86836232 2.44604492 118.18066406 C-0.25153765 119.87236839 -1.55896019 120.14294429 -4.68579102 119.51757812 C-6.80969238 118.14758301 -6.80969238 118.14758301 -8.68579102 115.51757812 C-9.29863306 111.99728765 -9.23174875 108.50300632 -9.20336914 104.9375 C-9.21037842 103.86069473 -9.2173877 102.78388947 -9.22460938 101.67445374 C-9.24222894 98.11148365 -9.23055189 94.54930643 -9.21704102 90.98632812 C-9.21973477 88.51297859 -9.22361622 86.03963008 -9.2286377 83.56628418 C-9.23453814 78.38116377 -9.22595179 73.19631887 -9.20727539 68.01123047 C-9.18448577 61.35940857 -9.1976057 54.70850125 -9.22156525 48.05666351 C-9.23600816 42.94890464 -9.23142405 37.84129922 -9.22105408 32.73353577 C-9.21838265 30.28068465 -9.2216711 27.82781968 -9.23097229 25.37498474 C-9.24111259 21.94883228 -9.22567058 18.52373032 -9.20336914 15.09765625 C-9.21146606 14.08038956 -9.21956299 13.06312286 -9.22790527 12.01502991 C-9.14573059 5.21269009 -9.14573059 5.21269009 -6.94630432 1.88867188 C-4.38624002 0.3358882 -2.97794224 0.01169046 0 0 Z " fill="#FDFDFD" transform="translate(48.685791015625,52.482421875)"/>
<path d="M0 0 C1.42505859 -0.03673828 1.42505859 -0.03673828 2.87890625 -0.07421875 C9.79433733 -0.10339778 9.79433733 -0.10339778 13.15625 2.17578125 C14.5 4.375 14.5 4.375 14.5 7.9375 C13.5 11.375 13.5 11.375 12.0078125 13.0546875 C8.23563921 15.04066035 4.57929002 14.86776059 0.375 14.9375 C-1.25280802 14.97189031 -2.88046981 15.01446978 -4.5078125 15.06640625 C-5.22598145 15.07873291 -5.94415039 15.09105957 -6.68408203 15.10375977 C-8.74985003 15.22825806 -8.74985003 15.22825806 -10.5 17.375 C-10.87051993 19.6995339 -10.87051993 19.6995339 -10.9140625 22.3828125 C-10.95273438 23.36894531 -10.99140625 24.35507813 -11.03125 25.37109375 C-11.07765625 26.91990234 -11.07765625 26.91990234 -11.125 28.5 C-11.16367188 29.54027344 -11.20234375 30.58054687 -11.2421875 31.65234375 C-11.33664766 34.22638311 -11.42221214 36.80041155 -11.5 39.375 C-10.89003174 39.35405273 -10.28006348 39.33310547 -9.65161133 39.31152344 C-6.87207706 39.22807139 -4.0928068 39.17624989 -1.3125 39.125 C-0.35279297 39.09148437 0.60691406 39.05796875 1.59570312 39.0234375 C6.04121916 38.96190787 8.73430825 38.92929883 12.640625 41.203125 C14.5 43.375 14.5 43.375 15.0625 46.375 C14.33774588 50.24035529 13.76024846 51.14103766 10.5 53.375 C6.74035504 53.87572281 3.03417383 53.74985853 -0.75 53.625 C-1.78125 53.60695312 -2.8125 53.58890625 -3.875 53.5703125 C-6.41761064 53.52322712 -8.95833162 53.4574805 -11.5 53.375 C-11.49111755 54.12810959 -11.48223511 54.88121918 -11.4730835 55.65715027 C-11.39284967 62.76343612 -11.33199124 69.8695644 -11.29275131 76.97617626 C-11.27189907 80.62957815 -11.24362592 84.28260497 -11.19824219 87.93579102 C-11.15469814 91.46306849 -11.13084511 94.9899858 -11.12049103 98.51751137 C-11.10953126 100.51449599 -11.07831852 102.51133624 -11.04681396 104.50810242 C-11.04651184 105.72899063 -11.04620972 106.94987885 -11.04589844 108.20776367 C-11.03701599 109.28031906 -11.02813354 110.35287445 -11.01898193 111.45793152 C-11.62181143 115.11370879 -12.89810159 116.77973965 -15.5 119.375 C-18.5 120 -18.5 120 -21.5 119.375 C-24.10189841 116.77973965 -25.37818857 115.11370879 -25.98101807 111.45793152 C-25.9676944 109.84909843 -25.9676944 109.84909843 -25.95410156 108.20776367 C-25.95379944 106.98687546 -25.95349731 105.76598724 -25.95318604 104.50810242 C-25.93254089 103.19960831 -25.91189575 101.8911142 -25.890625 100.54296875 C-25.88315847 99.18248834 -25.87746748 97.82199712 -25.87347412 96.46150208 C-25.85824978 92.89216066 -25.81899711 89.32347718 -25.7746582 85.75439453 C-25.73363546 82.10783792 -25.71544826 78.4611743 -25.6953125 74.81445312 C-25.65249861 67.66770067 -25.58428714 60.52139344 -25.5 53.375 C-26.4288501 53.40219116 -26.4288501 53.40219116 -27.37646484 53.42993164 C-28.18809082 53.44403076 -28.9997168 53.45812988 -29.8359375 53.47265625 C-30.6407959 53.49078369 -31.4456543 53.50891113 -32.27490234 53.52758789 C-34.5 53.375 -34.5 53.375 -37.125 51.8125 C-38.5 49.375 -38.5 49.375 -38.5625 45.8125 C-37.5 42.375 -37.5 42.375 -35.375 40.4375 C-31.9450867 39.16992334 -29.13106454 39.30237871 -25.5 39.375 C-25.52094727 38.72015625 -25.54189453 38.0653125 -25.56347656 37.390625 C-25.64730383 34.38557672 -25.69886895 31.38077536 -25.75 28.375 C-25.80027344 26.83005859 -25.80027344 26.83005859 -25.8515625 25.25390625 C-25.94911022 17.59641017 -24.8448675 12.17465211 -19.71875 6.3515625 C-19.1515625 5.90554687 -18.584375 5.45953125 -18 5 C-17.4328125 4.53851563 -16.865625 4.07703125 -16.28125 3.6015625 C-10.91554861 -0.09324065 -6.3642294 0.00863532 0 0 Z " fill="#F5F5F5" transform="translate(170.5,52.625)"/>
<path d="M0 0 C8.6315625 -0.12375 8.6315625 -0.12375 17.4375 -0.25 C19.23501709 -0.28641602 21.03253418 -0.32283203 22.88452148 -0.36035156 C40.05257299 -0.56540142 40.05257299 -0.56540142 46.8527832 5.7097168 C51.17804926 10.25487776 52.67425534 14.55691502 53.5 20.75 C53.33912918 26.32685521 50.42847227 30.76129796 47 35 C41.12904969 39.81039155 35.02140315 40.14691389 27.734375 40.09765625 C27.03070801 40.09664917 26.32704102 40.09564209 25.60205078 40.09460449 C22.98468384 40.08939005 20.36734021 40.07542881 17.75 40.0625 C11.8925 40.041875 6.035 40.02125 0 40 C0 26.8 0 13.6 0 0 Z " fill="#050505" transform="translate(53,66)"/>
<path d="M0 0 C0.33 0 0.66 0 1 0 C1 5.61 1 11.22 1 17 C-4.61 17 -10.22 17 -16 17 C-13.50827759 15.7541388 -11.00938872 14.52238385 -8.5 13.3125 C-3.78494598 10.61095617 -1.83788246 6.72311799 -0.25 1.5625 C-0.1675 1.046875 -0.085 0.53125 0 0 Z " fill="#F2F2F2" transform="translate(224,208)"/>
<path d="M0 0 C1.25 2.5 2.5 5 3.75 7.5 C5.82910421 11.13648563 8.35659104 12.90697783 12 15 C12.99 15.66 13.98 16.32 15 17 C10.05 17 5.1 17 0 17 C0 11.39 0 5.78 0 0 Z " fill="#F5F5F5" transform="translate(0,208)"/>
<path d="M0 0 C5.61 0 11.22 0 17 0 C17 4.95 17 9.9 17 15 C15.95828125 13.43742188 14.91980387 11.8721511 13.921875 10.28125 C11.12802516 6.03459824 8.83134091 3.95309526 4 2 C2.68 1.34 1.36 0.68 0 0 Z " fill="#F5F5F5" transform="translate(208,0)"/>
<path d="M0 0 C4.95 0 9.9 0 15 0 C13.45620382 1.02919745 11.9083859 2.05484092 10.31640625 3.0078125 C5.34809679 6.17248178 3.16849931 9.57201726 1 15 C0.67 15 0.34 15 0 15 C0 10.05 0 5.1 0 0 Z " fill="#FAFAFA" transform="translate(0,0)"/>
</svg>
